# xmcd CD database file
# Copyright (C) 1995-1998 Ti Kan
#
# Track frame offsets:
#	182
#	15080
#	30447
#	44285
#	59882
#	71702
#	85190
#	98992
#	111852
#	125135
#	138085
#
# Disc length: 2038 seconds
#
# Revision: 1
# Processed by: cddbd v1.4b42PL1 Copyright (c) Steve Scherf et al.
# Submitted via: CDex 1.40Beta3
#
DISCID=9207f40b
DTITLE=Big Bill Broonzy - Remembering Big Bill Broonzy 
DYEAR=1900
DGENRE=Blues
TTITLE0=John Henry
TTITLE1=Bill Bailey Won't You Please Come Home
TTITLE2=Blue Tail Fly
TTITLE3=Leroy Carr
TTITLE4=Richard Jones
TTITLE5=Stump Blues
TTITLE6=Get Back
TTITLE7=Willie Mae
TTITLE8=Hey Hey
TTITLE9=Tomorrow
TTITLE10=Walkin' Down a Lonesome Road
EXTD=ID3G:   0
EXTT0=
EXTT1=
EXTT2=
EXTT3=
EXTT4=
EXTT5=
EXTT6=
EXTT7=
EXTT8=
EXTT9=
EXTT10=
PLAYORDER=
